{"title":"TNA.Sacrifice 15.05.2011 PPV HDTV XviD-XS@mastitorrents","uid":6397424,"size":1588261509,"categoryP":"video","categoryS":"tv_shows","magnet":"?xt=urn:btih:7b96f935dac0c7324a676e0337f41cadf823c21f&amp;dn=TNA.Sacrifice+15.05.2011+PPV+HDTV+XviD-XS%40mastitorrents&amp;tr=udp%3A%2F%2Ftracker.openbittorrent.com%3A80&amp;tr=udp%3A%2F%2Fopen.demonii.com%3A1337&amp;tr=udp%3A%2F%2Ftracker.coppersurfer.tk%3A6969&amp;tr=udp%3A%2F%2Fexodus.desync.com%3A6969","seeders":0,"leechers":0,"uploader":"tdkdemon","files":-1,"time":1305559433,"description":"mastitorrents.com\n  &lt;a href=&quot;\nhttp://mastitorrents.com/forums/index.php&quot; rel=&quot;nofollow&quot; target=&quot;_NEW&quot;&gt;\nhttp://mastitorrents.com/forums/index.php&lt;/a&gt;\n\n\n\n\n\n\n\n\nMASTI TORRENTS RELEASERS [ MTR ]\n\n    Where Quality Matters!\n\n\n\n\n\n\n\n\n\n\n\ndescription:\n\n\nTNA.Sacrifice.2011.PPV.HDTV.XviD-XS@mastitorrents \n\nGeneral Information \nComplete name : TNA.Sacrifice.2011.PPV.HDTV.XviD-XS.avi \nFormat : AVI \nFormat/Info : Audio Video Interleave \nFormat profile : OpenDML \nFile size : 1.48 GiB \nDuration : 2hr 53mn 48s \nOverall bit rate : 1 202 Kbps \nWriting application : Lavf51.12.1 \nVideo \nID : 0 \nFormat : MPEG-4 Visual \nFormat profile : Simple@L1 \nFormat settings, BVOP : No \nFormat settings, QPel : No \nFormat settings, GMC : No warppoints \nFormat settings, Matrix : Default (H.263) \nCodec ID : DX50 \nCodec ID/Hint : DivX 5 \nDuration : 2hr 53mn 48s \nBit rate : 1 074 Kbps \nWidth : 624 pixels \nHeight : 352 pixels \nDisplay aspect ratio : 16:9 \nFrame rate : 29.970 fps \nColor space : YUV \nChroma subsampling : 4:2:0 \nBit depth : 8 bits \nScan type : Progressive \nBits/(Pixel*Frame) : 0.163 \nStream size : 460 MiB (30%) \nWriting library : Lavc51.40.4 \nAudio \nID : 1 \nFormat : MPEG Audio \nFormat version : Version 1 \nFormat profile : Layer 3 \nMode : Joint stereo \nMode extension : MS Stereo \nCodec ID : 55 \nCodec ID/Hint : MP3 \nDuration : 2hr 53mn 48s \nBit rate mode : Constant \nBit rate : 128 Kbps \nChannel(s) : 2 channels \nSampling rate : 48.0 KHz \nStream size : 2.59 MiB (0%) \nAlignment : Aligned on interleaves \nInterleave, duration : 508 ms (15.23 video frames)\n\n\n\n\n\n\n\n\n\n\n****check out our MTR TEAMS other releases****\n &lt;a href=&quot;\nhttp://thepiratebay.se/user/amanrulz/&quot; rel=&quot;nofollow&quot; target=&quot;_NEW&quot;&gt;\nhttp://thepiratebay.se/user/amanrulz/&lt;/a&gt;\n          &lt;a href=&quot;\nhttp://thepiratebay.se/user/tdkdemon/&quot; rel=&quot;nofollow&quot; target=&quot;_NEW&quot;&gt;\nhttp://thepiratebay.se/user/tdkdemon/&lt;/a&gt;\n &lt;a href=&quot;\nhttp://thepiratebay.se/user/HDvideos/&quot; rel=&quot;nofollow&quot; target=&quot;_NEW&quot;&gt;\nhttp://thepiratebay.se/user/HDvideos/&lt;/a&gt;\n\n\n\n\n\n\n\n\n\n\n\n\n\n\n    &lt;&lt;&lt;&lt;&lt;&lt;&lt;SUPERFAST RELEASES BROUGHT TO YOU BY&gt;&gt;&gt;&gt;&gt;&gt;\n\n          \n\n\n                         Masti Torrent Releasers [ MTR ]","torrent":{"xt":"urn:btih:7b96f935dac0c7324a676e0337f41cadf823c21f","amp;dn":"TNA.Sacrifice+15.05.2011+PPV+HDTV+XviD-XS%40mastitorrents","amp;tr":["udp%3A%2F%2Ftracker.openbittorrent.com%3A80","udp%3A%2F%2Fopen.demonii.com%3A1337","udp%3A%2F%2Ftracker.coppersurfer.tk%3A6969","udp%3A%2F%2Fexodus.desync.com%3A6969"],"infoHash":"7b96f935dac0c7324a676e0337f41cadf823c21f","infoHashBuffer":{"type":"Buffer","data":[123,150,249,53,218,192,199,50,74,103,110,3,55,244,28,173,248,35,194,31]},"announce":[],"urlList":[]}}